<svg xmlns="http://www.w3.org/2000/svg" viewBox="0 0 566.22 405.97"><defs><style>.cls-1{font-size:26px;}.cls-1,.cls-2{fill:none;font-family:Helvetica, Helvetica;}.cls-2{font-size:26px;}.cls-3{fill:#102970;}.cls-4{fill:#036eb8;}</style></defs><title>资源 1</title><g id="图层_2" data-name="图层 2"><g id="图层_1-2" data-name="图层 1"><text class="cls-1" transform="translate(243.72 22.32)">Alzheimer</text><text class="cls-1" transform="translate(109.4 44.03)">Autism</text><text class="cls-2" transform="matrix(1, 0.01, -0.01, 1, 0.08, 158.18)">Dystonia</text><text class="cls-1" transform="translate(97.51 365.41)">Depression</text><text class="cls-1" transform="translate(282.24 393.46)">Hunting</text><text class="cls-1" transform="translate(372.41 393.46)">t</text><text class="cls-1" transform="translate(380.65 393.46)">on</text><text class="cls-1" transform="translate(491.07 186.09)">Stroke</text><path class="cls-3" d="M473.38,304.77a4.21,4.21,0,0,0-4.14,4.26,4.17,4.17,0,1,0,8.34,0,4.18,4.18,0,0,0-4.2-4.26"/><path class="cls-3" d="M487.49,304.77a4.21,4.21,0,0,0-4.14,4.26,4.17,4.17,0,1,0,8.34,0,4.18,4.18,0,0,0-4.2-4.26"/><path class="cls-3" d="M501.61,304.77a4.21,4.21,0,0,0-4.14,4.26,4.17,4.17,0,1,0,8.34,0,4.19,4.19,0,0,0-4.2-4.26"/><text class="cls-1" transform="translate(8.51 284.12)">Parkinson</text><path class="cls-4" d="M230.32,329.78l-17.46-.22,3.49-17.1,5.34,6.65s23.19-20.52,44.68-59.26c-12.9,36.24-41,63.88-41,63.88Z"/><path class="cls-4" d="M217.1,234.34c-38.16,4.84-71.17,26.34-71.17,26.34l-4.85-6.09-3.53,17.1L155,272l-5.35-6.64s25-18.28,67.44-31"/><path class="cls-4" d="M204.11,177.6C171.49,157.21,132.32,153,132.32,153l.1-7.79-13.54,11,13.35,11.24.06-8.53s30.92,1.67,71.82,18.69"/><path class="cls-4" d="M244.81,128.29c-33.71-14.48-58.36-45-58.36-45l-4.85,4.36-1.67-16.17,15.64,4.42-6,4.73s18.39,25.07,55.25,47.69"/><path class="cls-4" d="M295.22,120.56C305.47,82.38,304.4,57,304.4,57l7.15.59-8.41-14.47L292.48,56l7.49.62s1.22,23.34-4.75,63.9"/><path class="cls-4" d="M476.6,178.35l-15,9,1.31-8.42s-30.79-3.32-73.89,6.92c35.47-14.9,74.8-12.79,74.8-12.79l1.16-7.7,11.6,13"/><path class="cls-4" d="M337.52,347.49l13,8.46L354,340.82l-6.45,2.62s-10.75-18.81-22.74-54.88c7.45,35.89,18.92,56.43,18.92,56.43Z"/><text class="cls-1" transform="translate(406.62 60.15)">Glioma</text><path class="cls-4" d="M416.82,91.89l-4.11-16.38L397.4,82.62l7.45,3.54s-14.11,26.42-45.75,55.31C390.31,121.22,410,88.62,410,88.62Z"/><path class="cls-4" d="M440,267.43l8.69,16-18,2.61,3.65-7.3s-21-14.3-62-31.64c41.25,12,64.21,27.32,64.21,27.32Z"/><path class="cls-4" d="M342.85,211.17c-2,2.24-2.45,5.76-1.47,10.46a1.42,1.42,0,0,0,1.39,1.14l.3,0a1.45,1.45,0,0,0,1.11-1.69c-.77-3.71-.49-6.47.82-8a4.32,4.32,0,0,1,3.26-1.38l1.58.11,0-1.58c-.14-5.11.77-9.44,2.73-12.88a17.17,17.17,0,0,0,13.55,10.36,1.43,1.43,0,0,0,.09-2.86,11.3,11.3,0,0,1-3.8-1.09c1.33-1.24,3.06-3.28,3.17-5.65a1.43,1.43,0,0,0-.38-1,1.4,1.4,0,0,0-1-.47,1.46,1.46,0,0,0-1.46,1.37c-.08,1.73-2,3.46-2.88,4.22a16.19,16.19,0,0,1-5.31-7.61,11,11,0,0,1,3.14-2.54l1.86-.86-8.11-8.12a1.42,1.42,0,0,0-2.44,1,1.38,1.38,0,0,0,.41,1l5.4,5.4c-2.68,2-7.75,7.25-7.82,18.45a7.08,7.08,0,0,0-4.07,2.23"/><path class="cls-4" d="M383,202.17a38.69,38.69,0,0,0-16.66-31,15.65,15.65,0,0,0-1.25-7.07c-1.6-3.71-5.52-8.61-15.07-11-.8-1.71-3.55-6.59-10.3-10.74-8.93-5.5-21.24-7.75-36.56-6.7-1.84-.82-9.86-3.88-16.91,1.41a15,15,0,0,0-15.87,2.46c-3.44-.66-17.92-2.59-26.52,10.05a30,30,0,0,0-10,4.24c-5.18,3.33-12.25,9.93-16.54,22.42-.89,1.06-4.42,6-3.17,16,1.16,9.31,5,13.72,6.36,15,.34,2.95,2.9,15.28,21.5,16.35a3.46,3.46,0,0,1,2.95,2c1.92,4.27,6.47,12.08,15.41,16.49s19.66,4.21,32-.39c1.14,1.23,21.47,23.35,25.57,33.85a5.48,5.48,0,0,0,5.19,3.81,4.28,4.28,0,0,0,2.88-1.08c1.78-1.58,2.59-4.75,2.49-9.7a13.93,13.93,0,0,0-1.13-5.36,23.78,23.78,0,0,0,5.37.64,17.47,17.47,0,0,0,7.83-1.71c7.61-3.78,9.06-12.79,8.89-19.88,10.37-.92,17.21-2.67,20.35-5.21,6.82-5.52,13.73-19.66,13.11-35m-58.34,57.2a34.34,34.34,0,0,0-6.78-4.78c-3.73-2.2-7.58-4.49-10-8.55a15.83,15.83,0,0,1-1.17-3.37c5.77.25,11.66.4,17.5.43,7.69.1,14.59,0,20.5-.38l2-.09c.2,8.81-2.26,14.55-7.32,17.06s-11.5,1.18-14.71-.32m-21.32-16.59a19.12,19.12,0,0,0,1.77,4.19,17.88,17.88,0,0,0,6.37,7.5,65.46,65.46,0,0,0,6.57,4,15.71,15.71,0,0,1,3.57,2.4,7.79,7.79,0,0,0,1.34.87,9.94,9.94,0,0,1,2.75,7c.12,5.24-.9,6.94-1.52,7.49a1.51,1.51,0,0,1-1.29.34,3,3,0,0,1-2.21-2c-3.6-9.2-18.22-26-23.81-32.2Zm-78.87-52.84a15.2,15.2,0,0,1-1.67,1.93c-2.93,2.87-1.32,8.43,1.42,12.38,4.51,6.5,9.64,7.15,12.66,5.73a6,6,0,0,1,6.69.89,13.86,13.86,0,0,1,3.17,3.66,43.83,43.83,0,0,0-2.34,6.33c-20.52-.12-21-13.7-21-14.28l0-.69-.54-.41s-4.55-3.73-5.77-13.56q-.19-1.56-.24-3.06c1.07-.34,4.8-1.31,7.68,1.08m22.67,33c0-.17,3.46-16.44,15.87-20.35a9.75,9.75,0,0,0-.25,5.12c.72,3.13,3.05,5.78,6.93,7.88a7.89,7.89,0,0,1,4.27,5.12c1.14,4.88-2.87,10.71-2.91,10.76a1.39,1.39,0,0,0-.24,1.06,1.4,1.4,0,0,0,.58.93,1.48,1.48,0,0,0,2-.33c.15-.23,3.77-5.38,3.62-10.86,3.42-1.5,7.86.28,7.9.3a1.4,1.4,0,0,0,1.1,0,1.36,1.36,0,0,0,.77-.77,1.42,1.42,0,0,0-.76-1.87c-.21-.09-5-2.09-9.46-.56a10.36,10.36,0,0,0-4.43-5.64c2.21-4.34,10.64-5.92,10.73-5.93a1.43,1.43,0,0,0,.55-2.59,1.48,1.48,0,0,0-1.07-.23c-.4.08-9.66,1.82-12.66,7.27-2.29-1.51-3.68-3.25-4.13-5.16a7.61,7.61,0,0,1,.87-5.21,19.52,19.52,0,0,1,2.23-.13h.69l.46-.42A50.37,50.37,0,0,1,283,193.1a28.75,28.75,0,0,1,12.44-2.4,20.92,20.92,0,0,1,13,5.46,1.58,1.58,0,0,0,2.1-2.37c-7.44-6.59-16.5-8-26.93-4.29a53.58,53.58,0,0,0-15.47,9.1,21.2,21.2,0,0,0-15,6.57c-6.75-6-5.06-16.5-5-16.6a1.32,1.32,0,0,0-1.07-1.53,1.3,1.3,0,0,0-1,.23,1.28,1.28,0,0,0-.54.85c-.08.49-2,12,5.87,19a33.69,33.69,0,0,0-3.06,4.49,14.23,14.23,0,0,0-4.56-4.05,8.52,8.52,0,0,0-7.23-.51c4.21-9-3.23-18.23-3.31-18.33a1.47,1.47,0,0,0-1-.51,1.39,1.39,0,0,0-1.05.32,1.43,1.43,0,0,0-.19,2c.07.09,7.41,9.19,1.89,17.06-2.1-.51-4.42-2.35-6.25-5-2.09-3-3.42-7.08-1.77-8.7,4.91-4.78,4.85-9.86,4.84-10.08a1.43,1.43,0,0,0-2.86.06,9.93,9.93,0,0,1-.88,3.53,10.79,10.79,0,0,0-9-1.55c.51-5.41,2.71-7.79,2.73-7.81l.14-.14.2-.41c.31-.9.65-1.82,1.07-2.86,1.2-.28,6.37-1.34,9.18.14a36.84,36.84,0,0,0-1.38,6.93,1.43,1.43,0,1,0,2.85.2,35.16,35.16,0,0,1,3.14-11.32c3.45-7.06,8.85-10.64,16.07-10.64h.49a1.36,1.36,0,0,0,1-.36,1.43,1.43,0,0,0,.08-2.06,1.4,1.4,0,0,0-1-.44c-12-.24-17.66,7.89-20.36,14.95-2.66-1.21-6.25-1-8.67-.6a37.1,37.1,0,0,1,12.92-15.12,26.09,26.09,0,0,1,9.52-4l.66-.09.36-.55c8.54-13.22,23.84-9.36,24.49-9.19l.75.2.58-.53a14.22,14.22,0,0,1,3.44-2.35c1.11,1.17,1.38,3.37,1.44,4.6a16.34,16.34,0,0,1-9.85-.3,1.44,1.44,0,0,0-1.81.92,1.44,1.44,0,0,0,.93,1.8,21.1,21.1,0,0,0,6.43,1.06,17,17,0,0,0,12.31-5.1A1.43,1.43,0,1,0,282.4,141a11.9,11.9,0,0,1-3.06,2.31,11,11,0,0,0-1.37-4.38,11.86,11.86,0,0,1,7.69,1.13l.88.51.77-.65a13.09,13.09,0,0,1,12.25-2.43l-1,.61a8.88,8.88,0,0,0-4.28,6.85l-.35,4.27a1.43,1.43,0,0,0,1.29,1.54,1.36,1.36,0,0,0,1-.32,1.41,1.41,0,0,0,.52-1l.35-4.26a6,6,0,0,1,1.95-3.92,2.93,2.93,0,0,1,1.58,1.45c.81,1.65.46,4.28-1,7.62a1.45,1.45,0,0,0,.73,1.89,1.46,1.46,0,0,0,1.89-.73c1.87-4.2,2.19-7.58,1-10.05a5.77,5.77,0,0,0-1.51-1.91l1.57-.94a86.48,86.48,0,0,1,14.74.17,8.89,8.89,0,0,0-3.6,3.59l-2,3.77a1.44,1.44,0,0,0,.59,1.94,1.48,1.48,0,0,0,1.94-.59l2-3.76a6,6,0,0,1,3.38-2.86,3.63,3.63,0,0,1,.61,2.22c-.1,1.9-1.61,4-4.38,6.19a1.42,1.42,0,0,0-.25,2,1.46,1.46,0,0,0,2,.26c3.51-2.73,5.35-5.54,5.48-8.35a6.48,6.48,0,0,0-.47-2.73l2.87-.25h.1a46.29,46.29,0,0,1,6.38,2.06,20.74,20.74,0,0,0-1.79,4l0,.08a9.47,9.47,0,0,0-5.23,2.61c-2.91,2.8-4.37,7.4-4.34,13.66a1.44,1.44,0,0,0,2.45,1,1.46,1.46,0,0,0,.41-1c0-5.43,1.14-9.31,3.44-11.56a6.77,6.77,0,0,1,2.67-1.64,15.72,15.72,0,0,0,1.31,7.78.56.56,0,0,1-.2.64,4.63,4.63,0,0,0-1.36,1.69c-.93,1.95-.57,4.51,1.09,7.59a1.45,1.45,0,0,0,1.93.59,1.43,1.43,0,0,0,.59-1.93c-1.16-2.17-1.53-4-1-5a2.21,2.21,0,0,1,1.35-1.11A1.32,1.32,0,0,0,335,159a1.64,1.64,0,0,0-.1-1.43,12.8,12.8,0,0,1,.43-14.06c9.64,4.83,12.21,11.36,12.24,11.42l.26.74.77.17.61.15c-2.71,8-1.4,14.23.2,18.09a20.69,20.69,0,0,0,4.49,6.86,1.6,1.6,0,0,0,2.16-2.35,18.57,18.57,0,0,1-5-10.55c2.41-.76,6.12,1.29,6.28,1.38a1.72,1.72,0,0,0,1.28.17,1.74,1.74,0,0,0,1-.78,1.64,1.64,0,0,0,.17-1.28,1.68,1.68,0,0,0-.78-1c-.19-.11-4.41-2.53-8.17-1.86a25.55,25.55,0,0,1,1.45-7.74c12.77,4.53,11.14,14.36,11.06,14.78l-.17.92.77.53a36.36,36.36,0,0,1,12.11,13.45,14.61,14.61,0,0,1-8.23,0c.27-1.55,2.14-3.21,2.88-3.75a1.45,1.45,0,0,0,.34-2,1.51,1.51,0,0,0-.93-.59,1.48,1.48,0,0,0-1.08.25c-.13.1-3.09,2.22-3.9,5.05a19.6,19.6,0,0,1-5.1-3.68,1.39,1.39,0,0,0-1-.39,1.36,1.36,0,0,0-.94,2.34,19.65,19.65,0,0,0,13.27,6.05,16.44,16.44,0,0,0,5.82-.82,38.24,38.24,0,0,1,2.86,13.26c.56,13.88-5.69,27.5-12,32.66-3.15,2.54-11,4.2-23.24,4.91-3.69.17-9.73.38-17.61.39-17.84-.11-34.35-1.43-34.51-1.45l-.32,0-.31.11c-11.92,4.56-22.15,4.81-30.4.75-9-4.43-13.19-12.81-14.64-16.43a1,1,0,0,0,.08-.25"/><path class="cls-4" d="M283.53,147.89a1.42,1.42,0,0,0-.82-.72,1.4,1.4,0,0,0-1.1.06,21.31,21.31,0,0,0-8.77,9.4c-4.38-4.57-12.67-6.25-13-6.33a1.43,1.43,0,0,0-.56,2.81c.1,0,9.29,1.88,12.43,6.61a23,23,0,0,0-.84,7.23c.05,1.26.1,2.55.13,3.84a20,20,0,0,0-9.94-1.91c-2-3.65-.42-8.7-.4-8.76a1.43,1.43,0,0,0-2-1.72,1.41,1.41,0,0,0-.72.83c-.08.23-1.84,5.7.25,10.32a11.17,11.17,0,0,0-5.85,5.38c-2.47-1-4.32-3.8-5.46-6a31.36,31.36,0,0,1-2.06-5.22,1.38,1.38,0,0,0-.66-.87,1.43,1.43,0,0,0-2.1,1.61c.11.43,2.82,10.39,9,13.07-1.47,2.71-3.28,4.43-5.38,5.09a8.48,8.48,0,0,1-6.25-.73,1.41,1.41,0,0,0-1.08-.16,1.39,1.39,0,0,0-.88.65,1.42,1.42,0,0,0,.48,2,11.71,11.71,0,0,0,5.58,1.47,9.93,9.93,0,0,0,3-.45c3.3-1,5.95-3.77,7.88-8.11a8.7,8.7,0,0,1,5.26-5.13c4.42-1.39,9.84,1.12,11.42,1.93.14,9.35-.19,15.5-.19,15.56a1.43,1.43,0,1,0,2.85.16c0-.09.53-9.57,0-22.88a20.23,20.23,0,0,1,.8-6.62,1.56,1.56,0,0,0,.16-.53,17.7,17.7,0,0,1,8.21-9.88,1.45,1.45,0,0,0,.67-1.92"/><path class="cls-4" d="M265.8,177.55h0a1.41,1.41,0,0,0-1.05-.29,1.43,1.43,0,0,0-1.26,1.58,13.63,13.63,0,0,1-.53,4.81c-1.66-1.3-4.39-3-7.14-2.6a1.42,1.42,0,0,0-.95.54,1.48,1.48,0,0,0-.29,1.06,1.44,1.44,0,0,0,1.6,1.24c2.15-.27,4.66,1.67,5.71,2.59a19.15,19.15,0,0,1-8.23,8.26,1.44,1.44,0,0,0-.56,1.94,1.42,1.42,0,0,0,1.25.74,1.4,1.4,0,0,0,.7-.18c6.5-3.6,9.23-8.46,10.37-11.91a17.41,17.41,0,0,0,.92-6.82,1.47,1.47,0,0,0-.54-1"/><path class="cls-4" d="M282.39,158.85l1.07,4.14a1.43,1.43,0,0,0,1.39,1.07,1.48,1.48,0,0,0,.35-.05,1.43,1.43,0,0,0,.88-.66,1.41,1.41,0,0,0,.15-1.08l-1.07-4.14a5.91,5.91,0,0,1-.13-2.26,2.63,2.63,0,0,1,1.35.38c1.39.83,2.4,3,2.92,6.18a1.43,1.43,0,0,0,1.65,1.18,1.4,1.4,0,0,0,.93-.58,1.43,1.43,0,0,0,.25-1.06c-.68-4.16-2.14-6.92-4.33-8.21a5.51,5.51,0,0,0-1.69-.64l.25-.33,2.6-3.13a1.42,1.42,0,0,0-.18-2,1.41,1.41,0,0,0-1-.33,1.45,1.45,0,0,0-1,.51l-2.6,3.13a8.9,8.9,0,0,0-1.77,7.89"/><path class="cls-4" d="M266.42,237.23a1.47,1.47,0,0,0-.18,1.08,1.45,1.45,0,0,0,.63.89,9.26,9.26,0,0,0,4.53,1.2,8.76,8.76,0,0,0,7.15-3.9,21.21,21.21,0,0,0,8,1.92,14.35,14.35,0,0,0,11.67-5.27,82.46,82.46,0,0,0,24.91,4.36h.28c.29,0,.57,0,.85,0h.41a1,1,0,0,0,.34,0,40.64,40.64,0,0,0,16.81-3.92c1.53.25,6,.7,9.46-1.61a9.62,9.62,0,0,0,4.07-6.62,1.44,1.44,0,0,0-1.15-1.66,1.48,1.48,0,0,0-1.07.23,1.43,1.43,0,0,0-.6.93,6.84,6.84,0,0,1-2.83,4.74c-3.16,2.1-7.73,1.11-7.78,1.1l-.51-.11-.46.24a37.73,37.73,0,0,1-16.12,3.83c-9.11-1.1-11.7-14.19-11.73-14.32a1.43,1.43,0,1,0-2.81.53,30,30,0,0,0,2.79,7.74,19.5,19.5,0,0,0,4.56,5.85,80.92,80.92,0,0,1-19.38-4.28l-1-.39-.65.85c-7,9.1-17.34,3.1-17.78,2.84l-1.2-.71-.74,1.18c-3.62,5.76-8.28,3-8.48,2.87a1.45,1.45,0,0,0-2,.46"/><path class="cls-4" d="M273.28,222.72a1.44,1.44,0,0,0-.17-2,1.38,1.38,0,0,0-1-.34,1.43,1.43,0,0,0-1,.49,11.9,11.9,0,0,1-3.06,2.35c-.21-1.8-.82-4.4-2.64-5.9a1.38,1.38,0,0,0-1-.32,1.43,1.43,0,0,0-.78,2.53c1.34,1.1,1.62,3.66,1.68,4.85a16.47,16.47,0,0,1-9.86-.33,1.43,1.43,0,0,0-.87,2.72,21.15,21.15,0,0,0,6.43,1.06,17,17,0,0,0,12.32-5.1"/><path class="cls-4" d="M306.43,216.57a1.45,1.45,0,0,0-1-1.74,1.44,1.44,0,0,0-1.09.16,1.39,1.39,0,0,0-.65.88c-.69,2.72-4.24,4.77-5.75,5.53A23.21,23.21,0,0,1,292,208.19a1.39,1.39,0,0,0-.55-.95,1.36,1.36,0,0,0-1.05-.28,1.43,1.43,0,0,0-1.23,1.6c1.15,8.8,5.35,14,8.67,16.74a20.59,20.59,0,0,0,7.14,4,1.57,1.57,0,0,0,.37,0,1.44,1.44,0,0,0,1.24-2.15,1.39,1.39,0,0,0-.86-.66,17.92,17.92,0,0,1-5.59-3.08c2.24-1.26,5.46-3.59,6.29-6.89"/><path class="cls-4" d="M289.23,200.42a1.42,1.42,0,0,0,1.08.16,18.27,18.27,0,0,1,6.38,0c-2.89,4.64-2.5,7.86-2.18,9.07a1.41,1.41,0,0,0,1.38,1.06,1.47,1.47,0,0,0,.36,0,1.43,1.43,0,0,0,1-1.75c-.71-2.72,1.41-6.23,2.36-7.62A23.25,23.25,0,0,1,311.19,210a1.42,1.42,0,0,0,2.56-.63,1.39,1.39,0,0,0-.26-1.06c-5.26-7.15-11.43-9.64-15.68-10.47a20.86,20.86,0,0,0-8.18,0,1.46,1.46,0,0,0-.88.65,1.43,1.43,0,0,0,.48,2"/><path class="cls-4" d="M320.3,226.94a1.41,1.41,0,0,0-.08,2,1.42,1.42,0,0,0,1,.45,1.39,1.39,0,0,0,1-.38c.07-.07,7.58-6.79,19.06-1.47a1.39,1.39,0,0,0,1.27-.05,1.34,1.34,0,0,0,.59-.63,1.4,1.4,0,0,0-.68-1.87,25.71,25.71,0,0,0-5.45-1.83c-4.61-6.14-10-8.3-13.68-9a17.74,17.74,0,0,0-7.25,0,1.45,1.45,0,0,0-1.05,1.73,1.48,1.48,0,0,0,.66.89,1.45,1.45,0,0,0,1.08.16,15.89,15.89,0,0,1,7,.29c-1.88.79-4.23,2.16-5.32,4.35a1.47,1.47,0,0,0,.34,1.76,1.21,1.21,0,0,0,.3.2,1.49,1.49,0,0,0,2-.65c1.42-2.83,6.76-3.87,6.81-3.88l.22-.05a20.08,20.08,0,0,1,4.81,3.79,19.72,19.72,0,0,0-6.41.94,17.33,17.33,0,0,0-6.14,3.33"/><path class="cls-4" d="M363.86,226.51l-.57.16.76,2.76.58-.16c7.74-2.14,9-9.54,9.23-12.15a10.26,10.26,0,0,0,4.57-6,9,9,0,0,0-.6-5.76,9.5,9.5,0,0,0-1.85-8.76,16.39,16.39,0,0,0-3.66-3.48l-.51-.32-1.55,2.4.5.33c.26.16,6.21,4.11,4.18,9.44l-.24.65.36.59c.12.21,2.95,5.07-3.34,8.91l-.7.43v.81c0,.09,0,8.2-7.17,10.18"/><path class="cls-4" d="M298.29,172c-4.13-2.94-9.29-2.25-11.74-1.68a16.76,16.76,0,0,0-2.66-5.06,1.46,1.46,0,0,0-1-.54,1.51,1.51,0,0,0-1.12.35,1.54,1.54,0,0,0-.19,2.16c.26.31,6.24,7.68.57,18.57a1.52,1.52,0,0,0,.65,2.07,1.47,1.47,0,0,0,.71.18,1.54,1.54,0,0,0,1.36-.83,21.93,21.93,0,0,0,2.44-14.13c2.05-.46,6.23-1,9.36,1.24a8.65,8.65,0,0,1,2.78,3.5,5.2,5.2,0,0,1-2.65,3.39c-2.18.93-4.85-.41-4.87-.42a1.44,1.44,0,0,0-2,1.7,1.47,1.47,0,0,0,.71.84,10.69,10.69,0,0,0,4.45,1.07,7.21,7.21,0,0,0,2.85-.56,6.62,6.62,0,0,0,2.71-2.13,26,26,0,0,1,.31,4.18,1.44,1.44,0,0,0,2.87,0c0-6.64-1.84-11.32-5.47-13.9"/><path class="cls-4" d="M299.73,170.94a1.45,1.45,0,0,0,.67-.17,1.43,1.43,0,0,0,.6-1.92c0-.06-3-5.95-.65-10.55,1.57-3.1,5.21-5.09,10.8-5.94a1.43,1.43,0,1,0-.42-2.83c-6.57,1-10.92,3.51-12.94,7.49-3,6,.52,12.86.68,13.15a1.42,1.42,0,0,0,1.26.77"/><path class="cls-4" d="M315,172.63a9.37,9.37,0,0,1-.53,1.16L311.17,180a1.44,1.44,0,0,0,.6,1.94,1.44,1.44,0,0,0,1.93-.6l3.28-6.18a14.22,14.22,0,0,0,.19-12.95l-3.25-6.6a1.44,1.44,0,0,0-.83-.72,1.42,1.42,0,0,0-1.81.9,1.42,1.42,0,0,0,.07,1.09l3.26,6.59a11.4,11.4,0,0,1,1.12,5.82,4.69,4.69,0,0,1-4.21.47c-4-1.67-5.88-9.28-5.9-9.36A1.43,1.43,0,0,0,303,160a1.4,1.4,0,0,0-.17,1.08c.08.37,2.19,9.11,7.59,11.35a6.79,6.79,0,0,0,4.55.25"/><path class="cls-4" d="M323.36,206.75h0a1.34,1.34,0,0,0-1,.14,1.31,1.31,0,0,0-.61.81,1.33,1.33,0,0,0,.37,1.29,1.4,1.4,0,0,0,.57.32,21.69,21.69,0,0,0,5.43.72,17.59,17.59,0,0,0,8.25-2,15.22,15.22,0,0,0,4.68-3.75,1.32,1.32,0,0,0,.25-1,1.27,1.27,0,0,0-.51-.86,1.31,1.31,0,0,0-1.85.25,13.25,13.25,0,0,1-7,4.26c-.48-1.38.25-3.57.6-4.35a1.38,1.38,0,0,0-1.74-1.87,1.35,1.35,0,0,0-.78.72c-.06.14-1.47,3.24-.83,5.92a18.28,18.28,0,0,1-5.83-.62"/><path class="cls-4" d="M345.17,194.76h0a18.32,18.32,0,0,1-8.94.73c0-2,1.94-4.37,2-4.4a1.48,1.48,0,0,0-.2-2.1,1.49,1.49,0,0,0-2.11.2,12.59,12.59,0,0,0-2.59,5.62,24.44,24.44,0,0,1-10.13-6.42,1.61,1.61,0,0,0-2.7,1.56,1.64,1.64,0,0,0,.4.7c6.33,6.42,12.89,8,17.28,8.24l1.15,0a20.29,20.29,0,0,0,7.1-1.17,1.62,1.62,0,0,0,.88-2.09,1.61,1.61,0,0,0-2.09-.89"/><path class="cls-4" d="M355.52,210.53a1.17,1.17,0,0,0-.31-.17,1.38,1.38,0,0,0-1.62.48,1.35,1.35,0,0,0-.25,1,1.43,1.43,0,0,0,.55.9,14,14,0,0,1,3.16,3.67c-2.06.34-5.09,1.23-6.67,3.46a1.38,1.38,0,0,0,.34,1.93,1.42,1.42,0,0,0,1.93-.33c1.23-1.76,4.34-2.29,5.71-2.45a18.86,18.86,0,0,1,.58,11.58,1.37,1.37,0,0,0,1,1.66,1.19,1.19,0,0,0,.33,0,1.42,1.42,0,0,0,.72-.2,1.38,1.38,0,0,0,.63-.86c1.71-7.15,0-12.38-1.76-15.52a16.88,16.88,0,0,0-4.36-5.22"/><path class="cls-4" d="M315.35,193a1.67,1.67,0,0,0,.44.06,1.42,1.42,0,0,0,1.27-2.08l-2.35-4.56a.22.22,0,0,1,0-.21.27.27,0,0,1,.17-.12,16.83,16.83,0,0,0,9.5-5,21,21,0,0,0,15.29,2.48,16.89,16.89,0,0,0,6.24-2.77,1.41,1.41,0,0,0,.24-2,1.44,1.44,0,0,0-2-.24,15.11,15.11,0,0,1-9.13,2.69c-.23-2,1.93-4.75,1.95-4.78a1.49,1.49,0,0,0-.21-2.1,1.49,1.49,0,0,0-2.11.2c-.11.14-2.61,3.21-2.63,6.37a20.83,20.83,0,0,1-5.87-2.13,19.9,19.9,0,0,0,2.67-6.7.23.23,0,0,1,.24-.19,8.91,8.91,0,0,0,5.37-.8c2.66-1.35,4.57-4.07,5.69-8.09a1.4,1.4,0,0,0-.15-1.09,1.48,1.48,0,0,0-.9-.67,1.44,1.44,0,0,0-1.72,1c-.88,3.19-2.3,5.3-4.2,6.27a6.41,6.41,0,0,1-4.88.23l-1.71-.73-.26,1.85c-1.92,13.79-13.44,13.62-13.93,13.6l-2.42-.06,4.58,8.87a1.42,1.42,0,0,0,.83.71"/></g></g></svg>